<svg width="200" height="200" viewBox="0 0 200 200" xmlns="http://www.w3.org/2000/svg">
  <defs>
    <!-- Metallic frame gradient -->
    <linearGradient id="metalFrame" x1="0" y1="0" x2="1" y2="0">
      <stop offset="0%" stop-color="#1e1f24" />
      <stop offset="30%" stop-color="#3c3e44" />
      <stop offset="70%" stop-color="#2c2e36" />
      <stop offset="100%" stop-color="#141518" />
    </linearGradient>

    <!-- Bevel effect (inner shadow simulation) -->
    <linearGradient id="innerBevel" x1="0" y1="0" x2="1" y2="0">
      <stop offset="0%" stop-color="#020202" />
      <stop offset="30%" stop-color="#101114" />
      <stop offset="100%" stop-color="#2a2c30" />
    </linearGradient>

    <radialGradient id="laserGlow" cx="20%" cy="50%" r="80%">
      <stop offset="0%" stop-color="#4aff60" stop-opacity="1" />
      <stop offset="20%" stop-color="#00dd22" stop-opacity="0.9" />
      <stop offset="50%" stop-color="#00aa1a" stop-opacity="0.5" />
      <stop offset="100%" stop-color="#005500" stop-opacity="0" />
    </radialGradient>

    <!-- Drop shadow -->
    <filter id="shadow" x="-50%" y="-50%" width="200%" height="200%">
      <feDropShadow dx="8" dy="0" stdDeviation="6" flood-color="#000" flood-opacity="0.8"/>
    </filter>
  </defs>

  <g transform="translate(0, 100)">
    <!-- Base plate extending left -->
    <rect x="-10" y="-70" width="60" height="140" rx="6" fill="url(#metalFrame)" filter="url(#shadow)"/>
    
    <!-- Outer metallic bevel line -->
    <rect x="-5" y="-65" width="50" height="130" rx="4" fill="none" stroke="#5b5f68" stroke-width="1.5" opacity="0.8"/>
    <rect x="-3" y="-63" width="46" height="126" rx="3" fill="none" stroke="#111" stroke-width="1.5" opacity="0.6"/>
    
    <!-- Dark housing inset -->
    <ellipse cx="14" cy="0" rx="20" ry="46" fill="#15161a"/>
    <ellipse cx="14" cy="0" rx="19" ry="45" fill="none" stroke="#000" stroke-width="2"/>
    
    <!-- Inner depth curve -->
    <path d="M 6 -40 C 26 -40, 26 40, 6 40 C -10 40, -10 -40, 6 -40" fill="url(#innerBevel)"/>
    
    <!-- Deep hole darkness -->
    <path d="M 0 -34 C 18 -34, 18 34, 0 34 C -10 34, -10 -34, 0 -34" fill="#050505"/>
    
    <!-- Glowing Laser inside -->
    <ellipse cx="8" cy="0" rx="12" ry="32" fill="url(#laserGlow)"/>

  </g>
</svg>
